<svg width="180" height="180" viewBox="0 0 180 180" fill="none" xmlns="http://www.w3.org/2000/svg">
<path d="M91.6071 170.357C91.6071 169.286 91.0714 168.75 90 168.75C86.0491 168.75 82.6507 167.327 79.8047 164.481C76.9587 161.635 75.5357 158.237 75.5357 154.286C75.5357 153.214 75 152.679 73.9286 152.679C72.8571 152.679 72.3214 153.214 72.3214 154.286C72.3214 159.174 74.0458 163.343 77.4944 166.791C80.9431 170.24 85.1116 171.964 90 171.964C91.0714 171.964 91.6071 171.429 91.6071 170.357ZM173.571 141.429C173.571 144.911 172.299 147.924 169.754 150.469C167.21 153.013 164.196 154.286 160.714 154.286H115.714C115.714 161.384 113.203 167.444 108.181 172.467C103.158 177.489 97.0982 180 90 180C82.9018 180 76.8415 177.489 71.8192 172.467C66.7969 167.444 64.2857 161.384 64.2857 154.286H19.2857C15.8036 154.286 12.7902 153.013 10.2455 150.469C7.70089 147.924 6.42857 144.911 6.42857 141.429C9.77678 138.616 12.8237 135.67 15.5692 132.589C18.3147 129.509 21.1607 125.508 24.1071 120.586C27.0536 115.664 29.548 110.357 31.5904 104.665C33.6328 98.9732 35.3069 92.0759 36.6127 83.9732C37.9185 75.8705 38.5714 67.1652 38.5714 57.8571C38.5714 47.6786 42.4888 38.2199 50.3237 29.481C58.1585 20.7422 68.4375 15.4353 81.1607 13.5603C80.625 12.2879 80.3571 10.9821 80.3571 9.64286C80.3571 6.96429 81.2946 4.6875 83.1696 2.8125C85.0446 0.9375 87.3214 0 90 0C92.6786 0 94.9554 0.9375 96.8304 2.8125C98.7054 4.6875 99.6429 6.96429 99.6429 9.64286C99.6429 10.9821 99.375 12.2879 98.8393 13.5603C111.562 15.4353 121.842 20.7422 129.676 29.481C137.511 38.2199 141.429 47.6786 141.429 57.8571C141.429 67.1652 142.081 75.8705 143.387 83.9732C144.693 92.0759 146.367 98.9732 148.41 104.665C150.452 110.357 152.946 115.664 155.893 120.586C158.839 125.508 161.685 129.509 164.431 132.589C167.176 135.67 170.223 138.616 173.571 141.429Z" fill=""/>
</svg>
