<svg width="180" height="180" viewBox="0 0 180 180" fill="none" xmlns="http://www.w3.org/2000/svg">
<path fill-rule="evenodd" clip-rule="evenodd" d="M18.894 58.6705C15 65.7846 15 74.3662 15 91.5292V102.937C15 132.193 15 146.822 23.7868 155.911C32.5736 165 46.7157 165 75 165H105C133.284 165 147.427 165 156.213 155.911C165 146.822 165 132.193 165 102.937V91.5292C165 74.3662 165 65.7846 161.106 58.6705C157.212 51.5566 150.098 47.1413 135.87 38.3109L120.87 29.0015C105.829 19.6672 98.3092 15 90 15C81.6907 15 74.1704 19.6672 59.1302 29.0015L44.1302 38.311C29.9021 47.1413 22.788 51.5566 18.894 58.6705ZM67.5 129.375C64.3934 129.375 61.875 131.893 61.875 135C61.875 138.106 64.3934 140.625 67.5 140.625H112.5C115.606 140.625 118.125 138.106 118.125 135C118.125 131.893 115.606 129.375 112.5 129.375H67.5Z" fill=""/>
</svg>
