<svg width="180" height="180" viewBox="0 0 180 180" fill="none" xmlns="http://www.w3.org/2000/svg">
<path d="M31.5 13.3125C27.1875 15.5625 22.875 19.875 20.625 24.375C17.0625 31.3125 16.875 35.25 16.875 90C16.875 144.75 17.0625 148.688 20.625 155.625C23.0625 160.5 27 164.438 31.875 166.875C38.625 170.438 42.75 170.625 90 170.625C137.25 170.625 141.375 170.438 148.125 166.875C153 164.438 156.938 160.5 159.375 155.625C162.938 148.688 163.125 144.75 163.125 90C163.125 35.25 162.938 31.3125 159.375 24.375C156.938 19.5 153 15.5625 148.125 13.125C141.188 9.5625 137.25 9.375 89.625 9.375C42.375 9.5625 37.875 9.75 31.5 13.3125ZM94.6875 45V49.6875L71.625 50.25C52.5 50.625 48.5625 50.25 47.625 47.8125C47.0625 46.3125 47.0625 43.6875 47.625 42.1875C48.5625 39.75 52.5 39.375 71.625 39.75L94.6875 40.3125V45ZM132.188 75V79.6875L90.375 80.25C54.5625 80.625 48.5625 80.25 47.625 77.8125C46.875 76.3125 46.875 73.6875 47.625 72.1875C48.5625 69.75 54.5625 69.375 90.375 69.75L132.188 70.3125V75ZM132.188 105V109.688L90.375 110.25C54.5625 110.625 48.5625 110.25 47.625 107.812C46.875 106.312 46.875 103.688 47.625 102.188C48.5625 99.75 54.5625 99.375 90.375 99.75L132.188 100.312V105ZM132.188 135V139.688L90.375 140.25C54.5625 140.625 48.5625 140.25 47.625 137.812C46.875 136.312 46.875 133.688 47.625 132.188C48.5625 129.75 54.5625 129.375 90.375 129.75L132.188 130.312V135Z" fill=""/>
</svg>
